<svg width="138" height="14" viewBox="0 0 138 14" fill="none" xmlns="http://www.w3.org/2000/svg">
<path fill-rule="evenodd" clip-rule="evenodd" d="M80.1763 9.59584V9.63266C80.1763 12.1916 78.2234 13.6276 75.4414 13.6276C73.4885 13.6276 71.5171 12.9464 69.9695 11.5657L71.6461 9.55903C72.8068 10.5163 74.0228 11.1238 75.4967 11.1238C76.6574 11.1238 77.3575 10.6636 77.3575 9.90881V9.87199C77.3575 9.15401 76.9153 8.78582 74.7597 8.23353C72.162 7.57078 70.4854 6.85279 70.4854 4.29384V4.25702C70.4854 1.91898 72.3646 0.372559 74.9992 0.372559C76.8785 0.372559 78.4814 0.961668 79.7894 2.01102L78.3155 4.14656C77.1733 3.35494 76.0494 2.87629 74.9624 2.87629C73.8754 2.87629 73.3042 3.37335 73.3042 3.99928V4.0361C73.3042 4.88295 73.857 5.1591 76.0863 5.7298C78.7024 6.41096 80.1763 7.34985 80.1763 9.59584ZM66.3412 0.556654V13.4435H63.5039V0.556654H66.3412ZM95.0748 13.4435L91.9243 8.84105C93.564 8.23353 94.6879 6.92643 94.6879 4.84613V4.80931C94.6879 2.1583 92.8639 0.556654 89.824 0.556654H83.9283V13.4435H86.7656V9.3197H88.9949L91.7585 13.4435H95.0748ZM91.8138 4.9934C91.8138 6.07958 91.0215 6.81597 89.6397 6.81597H86.7656V3.11561H89.5845C90.9663 3.11561 91.8138 3.74155 91.8138 4.95659V4.9934ZM105.57 0.464612L111.097 13.4435H108.131L106.952 10.5531H101.498L100.319 13.4435H97.4267L102.954 0.464612H105.57ZM102.512 8.04942H105.939L104.225 3.87041L102.512 8.04942ZM124.197 13.4435V10.9213H117.196V8.2151H123.276V5.69297H117.196V3.07879H124.105V0.556654H114.377V13.4435H124.197ZM137.277 10.8661V13.4435H128.01V0.556654H130.847V10.8661H137.277ZM20.1444 0.692871L25.3975 13.6269H22.5784L21.4577 10.7465H16.2747L15.154 13.6269H12.4049L17.658 0.692871H20.1444ZM17.2377 8.25147H20.4946L18.8662 4.0869L17.2377 8.25147ZM10.1559 0.784595V3.38975H6.42626V13.6269H3.72968V3.38975H0V0.784595H10.1559ZM37.3227 13.6269V11.0584H31.2116V0.784595H28.515V13.6269H37.3227ZM46.518 6.2334L51.736 13.6269H48.4967L44.6969 8.15974L43.2786 9.70081V13.6269H40.582V0.784595H43.2786V6.39851L48.2515 0.784595H51.5084L46.518 6.2334Z" fill="white"/>
</svg>
